<svg width="156" height="156" viewBox="0 0 156 156" fill="none" xmlns="http://www.w3.org/2000/svg">
<g filter="url(#filter0_i_557_7)">
<path d="M155.454 78C155.454 121.078 120.756 156 77.9536 156C35.1515 156 0.453613 121.078 0.453613 78C0.453613 34.9218 35.1515 0 77.9536 0C120.756 0 155.454 34.9218 155.454 78ZM15.7458 78C15.7458 112.578 43.5972 140.609 77.9536 140.609C112.31 140.609 140.161 112.578 140.161 78C140.161 43.4219 112.31 15.3908 77.9536 15.3908C43.5972 15.3908 15.7458 43.4219 15.7458 78Z" fill="white"/>
</g>
<path d="M78.3531 8.09762C78.3531 3.87184 81.7871 0.406994 85.9923 0.823101C103.756 2.58082 120.46 10.4289 133.192 23.1613C147.736 37.7055 155.907 57.4318 155.907 78.0004C155.907 98.5691 147.736 118.295 133.192 132.84C120.46 145.572 103.756 153.42 85.9924 155.178C81.7871 155.594 78.3531 152.129 78.3531 147.903C78.3531 143.677 81.7916 140.3 85.9855 139.782C99.6823 138.091 112.511 131.88 122.371 122.019C134.046 110.344 140.604 94.5105 140.604 78.0004C140.604 61.4903 134.046 45.6565 122.371 33.9821C112.511 24.1213 99.6823 17.9103 85.9855 16.2185C81.7916 15.7005 78.3531 12.3234 78.3531 8.09762Z" fill="url(#paint0_linear_557_7)"/>
<defs>
<filter id="filter0_i_557_7" x="0.453613" y="0" width="156" height="160" filterUnits="userSpaceOnUse" color-interpolation-filters="sRGB">
<feFlood flood-opacity="0" result="BackgroundImageFix"/>
<feBlend mode="normal" in="SourceGraphic" in2="BackgroundImageFix" result="shape"/>
<feColorMatrix in="SourceAlpha" type="matrix" values="0 0 0 0 0 0 0 0 0 0 0 0 0 0 0 0 0 0 127 0" result="hardAlpha"/>
<feOffset dx="1" dy="4"/>
<feGaussianBlur stdDeviation="6"/>
<feComposite in2="hardAlpha" operator="arithmetic" k2="-1" k3="1"/>
<feColorMatrix type="matrix" values="0 0 0 0 0 0 0 0 0 0 0 0 0 0 0 0 0 0 0.25 0"/>
<feBlend mode="normal" in2="shape" result="effect1_innerShadow_557_7"/>
</filter>
<linearGradient id="paint0_linear_557_7" x1="-19.5204" y1="147.179" x2="164.904" y2="-44.5353" gradientUnits="userSpaceOnUse">
<stop stop-color="#FFB47D"/>
<stop offset="1" stop-color="#FF4098"/>
</linearGradient>
</defs>
</svg>
